<svg width="31" height="31" viewBox="0 0 31 31" fill="none" xmlns="http://www.w3.org/2000/svg">
<path d="M7.19134 23.8511C6.29949 23.8511 5.54076 23.535 4.91514 22.9027C4.28932 22.2701 3.97641 21.5108 3.97641 20.6246H2.31494V8.38146C2.31494 7.84103 2.49913 7.38454 2.86751 7.01197C3.23568 6.63941 3.69552 6.45312 4.24704 6.45312H20.6887V10.916H23.4902L27.8372 16.7607V20.6246H25.8665C25.8665 21.5108 25.5498 22.2701 24.9165 22.9027C24.2829 23.535 23.5202 23.8511 22.6284 23.8511C21.7365 23.8511 20.9778 23.535 20.3522 22.9027C19.7265 22.2701 19.4137 21.5108 19.4137 20.6246H10.4295C10.4295 21.5215 10.1127 22.2834 9.47916 22.9105C8.8458 23.5376 8.08319 23.8511 7.19134 23.8511ZM7.19699 22.692C7.76861 22.692 8.25702 22.4914 8.66224 22.0901C9.06766 21.6887 9.27037 21.2002 9.27037 20.6246C9.27037 20.049 9.06798 19.5606 8.66318 19.1593C8.25859 18.7581 7.77185 18.5575 7.20296 18.5575C6.62737 18.5575 6.13895 18.7581 5.73772 19.1593C5.33648 19.5606 5.13586 20.049 5.13586 20.6246C5.13586 21.2002 5.33648 21.6887 5.73772 22.0901C6.13895 22.4914 6.62538 22.692 7.19699 22.692ZM3.47408 19.4654H4.26619C4.43217 18.9068 4.78967 18.4258 5.33867 18.0225C5.88768 17.6192 6.50911 17.4175 7.20296 17.4175C7.86478 17.4175 8.47627 17.6131 9.03742 18.0043C9.59836 18.3955 9.96579 18.8825 10.1397 19.4654H19.5296V7.61226H4.24704C4.04569 7.61226 3.86652 7.69274 3.70954 7.85369C3.55257 8.01486 3.47408 8.19204 3.47408 8.38523V19.4654ZM22.634 22.692C23.2056 22.692 23.6941 22.4914 24.0996 22.0901C24.5048 21.6887 24.7074 21.2002 24.7074 20.6246C24.7074 20.049 24.505 19.5606 24.1002 19.1593C23.6956 18.7581 23.209 18.5575 22.6403 18.5575C22.0647 18.5575 21.5762 18.7581 21.1747 19.1593C20.7735 19.5606 20.5729 20.049 20.5729 20.6246C20.5729 21.2002 20.7735 21.6887 21.1747 22.0901C21.5762 22.4914 22.0626 22.692 22.634 22.692ZM20.6887 16.9924H26.5864L22.8563 12.0755H20.6887V16.9924Z" fill="white"/>
</svg>
