<svg width="16" height="16" viewBox="0 0 16 16" fill="none" xmlns="http://www.w3.org/2000/svg">
<path d="M5.58824 12.2751C5.27885 12.2751 5.01457 12.1634 4.79541 11.9401C4.57625 11.7168 4.46667 11.4565 4.46667 11.1591V2.98411C4.46667 2.6868 4.57625 2.42648 4.79541 2.20315C5.01457 1.97983 5.27885 1.86816 5.58824 1.86816H11.9005C12.1993 1.86816 12.461 1.97983 12.6854 2.20315C12.9099 2.42648 13.0221 2.6868 13.0221 2.98411V11.1591C13.0221 11.4565 12.9099 11.7168 12.6854 11.9401C12.461 12.1634 12.1993 12.2751 11.9005 12.2751H5.58824ZM3.6245 14.229C3.31511 14.229 3.05084 14.1173 2.83167 13.894C2.61251 13.6707 2.50293 13.4103 2.50293 13.1129V4.01639H3.42935V13.1129C3.42935 13.1615 3.44966 13.2061 3.49027 13.2466C3.53099 13.287 3.57574 13.3072 3.6245 13.3072H10.8631V14.229H3.6245Z" fill="#C9C9C9"/>
</svg>
