<svg width="31" height="31" viewBox="0 0 31 31" fill="none" xmlns="http://www.w3.org/2000/svg">
<path d="M9.58184 24.0371C8.6215 24.0371 7.81413 23.7011 7.15974 23.0291C6.50535 22.3569 6.18862 21.5419 6.20955 20.5841H3.77458L4.35499 19.0786H6.58058C6.86477 18.5378 7.27609 18.0992 7.81455 17.7627C8.35279 17.4262 8.9421 17.2579 9.58247 17.2579C10.2268 17.2579 10.8186 17.4262 11.3579 17.7627C11.897 18.0992 12.3103 18.5378 12.5979 19.0786H18.9347L21.585 8.47107H7.89868L8.09047 7.95218C8.21457 7.65251 8.41055 7.4131 8.67842 7.23397C8.94607 7.05504 9.24073 6.96558 9.56238 6.96558H23.5362L22.5135 10.9786H24.6697L28.2203 15.9602L26.8489 20.5841H26.1366C26.1536 21.5419 25.833 22.3569 25.1748 23.0291C24.5167 23.7011 23.7074 24.0371 22.7471 24.0371C21.7867 24.0371 20.9801 23.7011 20.3272 23.0291C19.6742 22.3569 19.3563 21.5419 19.3732 20.5841H12.9708C12.9877 21.5419 12.6671 22.3569 12.009 23.0291C11.351 23.7011 10.542 24.0371 9.58184 24.0371ZM21.0721 16.6615H26.4361L26.5532 16.1979L23.868 12.484H22.1067L21.0721 16.6615ZM21.3135 9.61934L21.585 8.47107L18.9388 19.0786L19.2103 17.9303L20.216 13.8847L21.3135 9.61934ZM2.18213 16.5504L2.5607 15.0449H7.81047L7.43221 16.5504H2.18213ZM4.43252 12.5048L4.81517 10.9993H11.1912L10.8083 12.5048H4.43252ZM9.57964 22.5316C10.107 22.5316 10.5531 22.3496 10.9178 21.9857C11.2828 21.6218 11.4653 21.1762 11.4653 20.6491C11.4653 20.1217 11.283 19.6756 10.9185 19.3109C10.5539 18.9459 10.1096 18.7634 9.58561 18.7634C9.05636 18.7634 8.60925 18.9457 8.24429 19.3103C7.87953 19.6748 7.69715 20.1191 7.69715 20.6431C7.69715 21.1723 7.87911 21.6195 8.24303 21.9844C8.60695 22.3492 9.05249 22.5316 9.57964 22.5316ZM22.7458 22.5316C23.273 22.5316 23.719 22.3496 24.084 21.9857C24.4488 21.6218 24.6311 21.1762 24.6311 20.6491C24.6311 20.1217 24.4489 19.6756 24.0843 19.3109C23.72 18.9459 23.2757 18.7634 22.7515 18.7634C22.2222 18.7634 21.7752 18.9457 21.4105 19.3103C21.0455 19.6748 20.863 20.1191 20.863 20.6431C20.863 21.1723 21.045 21.6195 21.4089 21.9844C21.7728 22.3492 22.2185 22.5316 22.7458 22.5316Z" fill="white"/>
</svg>
