<svg width="31" height="31" viewBox="0 0 31 31" fill="none" xmlns="http://www.w3.org/2000/svg">
<path d="M6.3106 23.8294V9.26174L3.9873 4.3326L5.87105 3.42212L8.63389 9.26174H21.5062L24.269 3.42212L26.1528 4.3012L23.8295 9.26174V23.8294H6.3106ZM13.2177 15.7293H16.9224C17.2158 15.7293 17.4619 15.6301 17.6605 15.4317C17.8591 15.2332 17.9584 14.9873 17.9584 14.6939C17.9584 14.4004 17.8591 14.149 17.6605 13.9397C17.4619 13.7304 17.2158 13.6258 16.9224 13.6258H13.2177C12.9242 13.6258 12.6782 13.7274 12.4796 13.9306C12.2809 14.1341 12.1816 14.3861 12.1816 14.6866C12.1816 14.9784 12.2809 15.2251 12.4796 15.4266C12.6782 15.6284 12.9242 15.7293 13.2177 15.7293ZM8.41412 21.7259H21.7259V11.3653H8.41412V21.7259Z" fill="white"/>
</svg>
