<svg width="20" height="20" viewBox="0 0 20 20" fill="none" xmlns="http://www.w3.org/2000/svg">
<g clip-path="url(#clip0_384_1136)">
<path d="M16.6231 14.0457C16.7332 13.8686 16.9078 13.7414 17.1101 13.6909C17.3123 13.6404 17.5263 13.6706 17.7066 13.775C17.887 13.8795 18.0197 14.0501 18.0765 14.2507C18.1333 14.4512 18.1098 14.666 18.011 14.8496C16.7638 17.0079 14.7136 18.5854 12.3076 19.2376C9.90171 19.8899 7.33545 19.564 5.16891 18.3311C5.13116 18.313 5.09467 18.2924 5.05972 18.2694C2.91613 17.0142 1.35359 14.9648 0.710776 12.5653C0.067964 10.1659 0.396679 7.60978 1.62567 5.45105C1.64626 5.40785 1.67062 5.36654 1.69847 5.32762C2.96218 3.18266 5.02232 1.62399 7.43008 0.991151C9.83784 0.358309 12.3981 0.702577 14.5532 1.94896C15.9767 2.76545 17.1609 3.94144 17.9872 5.35927L18.1455 4.74367C18.1707 4.6315 18.2181 4.52553 18.285 4.43206C18.352 4.3386 18.437 4.25954 18.5351 4.19958C18.6332 4.13962 18.7423 4.1 18.856 4.08305C18.9697 4.06611 19.0857 4.0722 19.197 4.10095C19.3083 4.12971 19.4127 4.18054 19.5039 4.25044C19.5952 4.32033 19.6715 4.40786 19.7283 4.50782C19.785 4.60779 19.8211 4.71814 19.8344 4.83233C19.8477 4.94652 19.8379 5.06221 19.8056 5.17253L19.2216 7.43869C19.2042 7.50638 19.1787 7.57173 19.1456 7.63334C19.0709 7.81559 18.9357 7.96661 18.7629 8.0611C18.59 8.1556 18.3899 8.18783 18.1961 8.1524L15.8983 7.72829C15.7876 7.70751 15.682 7.66511 15.5876 7.60352C15.4932 7.54193 15.4119 7.46236 15.3483 7.36934C15.2846 7.27632 15.2399 7.17168 15.2168 7.06139C15.1936 6.9511 15.1923 6.83732 15.2131 6.72656C15.2339 6.61579 15.2763 6.5102 15.3379 6.41582C15.3995 6.32144 15.479 6.24011 15.5721 6.17648C15.6651 6.11285 15.7697 6.06816 15.88 6.04498C15.9903 6.02179 16.1041 6.02055 16.2148 6.04133L16.5836 6.10938C15.8847 4.9396 14.8931 3.97208 13.7065 3.30216C12.5199 2.63224 11.1793 2.28303 9.81667 2.28894C8.45404 2.29485 7.11646 2.65567 5.93573 3.33586C4.75499 4.01605 3.77185 4.99213 3.08316 6.16793L3.06101 6.20908C2.02148 8.00735 1.73791 10.1446 2.27255 12.1517C2.8072 14.1589 4.11636 15.8719 5.91269 16.9148C7.71331 17.9536 9.85283 18.2348 11.8607 17.6965C13.8686 17.1582 15.5805 15.8444 16.62 14.0441L16.6231 14.0457ZM13.1416 11.8207L14.0515 12.7306L14.6086 13.2876L13.7066 14.1976L13.1495 13.6405L12.2681 14.522L11.3581 13.6121L12.2396 12.7306L11.7648 12.2558L10.7504 13.2718L9.84048 12.3619L10.8565 11.3459L10.54 11.0294L10.2235 10.7129C9.72074 11.2135 9.0402 11.4945 8.33077 11.4945C7.62134 11.4945 6.94079 11.2135 6.43809 10.7129L6.39377 10.6654C5.9118 10.1596 5.64665 9.48534 5.65493 8.78667C5.66321 8.08801 5.94426 7.42026 6.43809 6.92595L7.35278 6.00652C7.85496 5.50287 8.53664 5.21933 9.24787 5.2183C9.9591 5.21726 10.6416 5.4988 11.1453 6.00098C11.6489 6.50316 11.9324 7.18484 11.9335 7.89607C11.9345 8.6073 11.653 9.28981 11.1508 9.79346L13.1495 11.8207H13.1416ZM10.0921 7.04939C9.86499 6.82547 9.55886 6.69993 9.23992 6.69993C8.92098 6.69993 8.61485 6.82547 8.38774 7.04939L7.4683 7.9625C7.24958 8.1845 7.1245 8.48204 7.1189 8.79364C7.11331 9.10524 7.22762 9.40708 7.43823 9.6368L7.46988 9.66686C7.6972 9.89041 8.00325 10.0157 8.32206 10.0157C8.64088 10.0157 8.94693 9.89041 9.17425 9.66686L10.0921 8.75375C10.3156 8.52644 10.4409 8.22039 10.4409 7.90157C10.4409 7.58276 10.3156 7.2767 10.0921 7.04939Z" fill="#433D4B"/>
</g>
<defs>
<clipPath id="clip0_384_1136">
<rect width="19.4459" height="18.8888" fill="white" transform="translate(0.389526 0.682617)"/>
</clipPath>
</defs>
</svg>
