<svg width="295" height="257" viewBox="0 0 295 257" fill="none" xmlns="http://www.w3.org/2000/svg">
<path d="M235.863 212.842C235.863 212.842 258.344 206.977 275.938 177.654C295.659 144.785 287.204 87.4253 260.931 59.5607C236.569 33.7224 182.616 29.1743 151.313 41.7885C121.734 53.7085 99.0196 82.3524 80.9366 86.2627C62.8535 90.1722 40.3727 83.8193 15.936 110.699C-8.49996 137.579 -3.12423 198.18 24.7331 218.218C52.5903 238.256 93.6432 214.797 129.32 198.669C164.997 182.541 170.862 217.729 235.863 212.842Z" fill="#FFDF3C"/>
<g opacity="0.7">
<path d="M235.863 212.842C235.863 212.842 258.344 206.977 275.938 177.654C295.659 144.785 287.204 87.4253 260.931 59.5607C236.569 33.7224 182.616 29.1743 151.313 41.7885C121.734 53.7085 99.0196 82.3524 80.9366 86.2627C62.8535 90.1722 40.3727 83.8193 15.936 110.699C-8.49996 137.579 -3.12423 198.18 24.7331 218.218C52.5903 238.256 93.6432 214.797 129.32 198.669C164.997 182.541 170.862 217.729 235.863 212.842Z" fill="white"/>
</g>
<path d="M228.417 153.628C228.42 153.599 228.421 153.581 228.421 153.581C222.436 151.596 213.259 152.266 211.895 153.082C210.404 153.976 209.237 155.321 208.196 156.716C205.294 160.605 202.836 166.041 201.391 171.889L136.327 177.934C133.935 172.758 130.319 168.117 126.693 165.32C125.625 164.496 124.472 163.736 123.171 163.379C122.891 163.302 122.28 163.324 121.47 163.433C119.108 156.598 115.766 150.001 111.591 149.583C102.77 148.701 87.4427 151.646 83.2539 160.182C79.0643 168.718 77.7565 190.016 77.7565 190.016L74.8094 192.953C72.4599 188.514 69.2739 184.608 66.074 182.14C65.0059 181.316 63.8535 180.556 62.5522 180.199C61.8228 179.998 58.9022 180.449 55.8144 181.451C55.6928 181.337 55.5718 181.222 55.4428 181.113C52.5353 178.653 46.4976 177.311 43.143 183.572C39.7884 189.834 43.8138 201.686 45.8269 204.369C47.4419 206.522 48.9102 207.522 49.4285 207.834C51.7986 213.71 55.9962 221.178 62.539 221.524C67.0409 221.762 71.4644 220.045 74.5807 216.785C78.8084 212.364 79.2629 206.208 77.6692 200.165L78.3488 199.168C78.3488 199.168 79.8685 201.331 85.7134 200.453C87.9808 200.113 89.4037 199.35 90.304 198.546C93.0384 205.507 97.4398 212.457 104.443 213.517C110.509 214.436 116.728 212.696 121.381 208.694C122.776 207.494 123.923 206.149 124.864 204.701C128.76 204.481 132.478 202.812 135.2 199.966C137.768 197.279 138.942 193.951 139.114 190.397L147.771 189.389C147.771 189.389 155.566 193.231 165.084 192.629C174.602 192.028 180.32 186.02 180.32 186.02L200.048 184.335C200.383 191.983 203.128 198.993 209.573 202.861C214.56 205.855 220.637 206.475 226.139 204.629C235.239 201.575 237.396 188.061 237.978 179.844C238.909 166.702 234.706 155.52 228.417 153.628Z" fill="#263238" stroke="#263238" stroke-width="0.525636" stroke-miterlimit="10" stroke-linecap="round" stroke-linejoin="round"/>
<path d="M107.968 209.327C107.197 210.284 106.266 211.076 105.147 211.623" stroke="white" stroke-width="0.350424" stroke-miterlimit="10" stroke-linecap="round" stroke-linejoin="round"/>
<path d="M111.522 191.951C111.522 191.951 112.397 201.464 109.147 207.528" stroke="white" stroke-width="0.350424" stroke-miterlimit="10" stroke-linecap="round" stroke-linejoin="round"/>
<path d="M114.1 202.48C113.267 206.146 111.617 209.7 108.426 211.259" stroke="white" stroke-width="0.350424" stroke-miterlimit="10" stroke-linecap="round" stroke-linejoin="round"/>
<path d="M118.08 191.222C118.08 191.222 119.537 207.069 111.704 210.894" stroke="white" stroke-width="0.350424" stroke-miterlimit="10" stroke-linecap="round" stroke-linejoin="round"/>
<path d="M121.359 190.858C121.359 190.858 122.816 206.705 114.984 210.53" stroke="white" stroke-width="0.350424" stroke-miterlimit="10" stroke-linecap="round" stroke-linejoin="round"/>
<path d="M220.261 201.962C219.374 203.049 218.355 203.948 217.184 204.567" stroke="white" stroke-width="0.350424" stroke-miterlimit="10" stroke-linecap="round" stroke-linejoin="round"/>
<path d="M226.154 182.179C226.154 182.179 225.685 193.021 221.665 199.916" stroke="white" stroke-width="0.350424" stroke-miterlimit="10" stroke-linecap="round" stroke-linejoin="round"/>
<path d="M227.207 194.187C225.882 198.359 223.776 202.402 220.439 204.165" stroke="white" stroke-width="0.350424" stroke-miterlimit="10" stroke-linecap="round" stroke-linejoin="round"/>
<path d="M232.664 181.376C232.664 181.376 231.882 199.438 223.694 203.764" stroke="white" stroke-width="0.350424" stroke-miterlimit="10" stroke-linecap="round" stroke-linejoin="round"/>
<path d="M235.919 180.974C235.919 180.974 235.137 199.036 226.95 203.362" stroke="white" stroke-width="0.350424" stroke-miterlimit="10" stroke-linecap="round" stroke-linejoin="round"/>
<path d="M64.6474 219.124C64.0317 220.057 63.2429 220.87 62.2407 221.501" stroke="white" stroke-width="0.350424" stroke-miterlimit="10" stroke-linecap="round" stroke-linejoin="round"/>
<path d="M65.8054 203.71C65.8054 203.71 67.8742 211.742 65.5452 217.412" stroke="white" stroke-width="0.350424" stroke-miterlimit="10" stroke-linecap="round" stroke-linejoin="round"/>
<path d="M69.6392 212.367C69.3144 215.631 68.1935 218.917 65.3359 220.715" stroke="white" stroke-width="0.350424" stroke-miterlimit="10" stroke-linecap="round" stroke-linejoin="round"/>
<path d="M71.9964 202.137C71.9964 202.137 75.4426 215.516 68.4307 219.928" stroke="white" stroke-width="0.350424" stroke-miterlimit="10" stroke-linecap="round" stroke-linejoin="round"/>
<path d="M75.0916 201.351C75.0916 201.351 78.5379 214.73 71.5259 219.142" stroke="white" stroke-width="0.350424" stroke-miterlimit="10" stroke-linecap="round" stroke-linejoin="round"/>
<path d="M100.358 186.517C102.1 196.498 101.013 205.026 97.9289 205.565C94.8448 206.104 90.9316 198.448 89.1891 188.467C87.4465 178.485 88.5337 169.957 91.6178 169.418C94.7019 168.88 98.6151 176.535 100.358 186.517Z" fill="#FFDF3C" stroke="#263238" stroke-width="0.700847" stroke-miterlimit="10" stroke-linecap="round" stroke-linejoin="round"/>
<path d="M98.806 186.729C99.2913 190.556 98.839 193.764 97.7958 193.897C96.7519 194.03 95.5129 191.035 95.0269 187.208C94.5416 183.382 94.9939 180.173 96.0371 180.04C97.081 179.908 98.3207 182.903 98.806 186.729Z" fill="#FFDF3C" stroke="#263238" stroke-width="0.700847" stroke-miterlimit="10" stroke-linecap="round" stroke-linejoin="round"/>
<path d="M91.4539 177.584C91.5887 176.065 91.8035 174.769 92.0587 173.769" stroke="#263238" stroke-width="0.525636" stroke-miterlimit="10" stroke-linecap="round" stroke-linejoin="round"/>
<path d="M96.3139 201.978C94.8624 199.039 92.9292 194.438 92.0018 189.129C91.3927 185.638 91.2292 182.339 91.3303 179.561" stroke="#263238" stroke-width="0.525636" stroke-miterlimit="10" stroke-linecap="round" stroke-linejoin="round"/>
<path d="M57.1978 216.18C59.4148 215.566 59.6005 209.252 57.6126 202.077C55.6247 194.902 52.216 189.583 49.9991 190.198C47.7821 190.812 47.5964 197.126 49.5842 204.301C51.5721 211.476 54.9808 216.795 57.1978 216.18Z" fill="#FFDF3C" stroke="#263238" stroke-width="0.700847" stroke-miterlimit="10" stroke-linecap="round" stroke-linejoin="round"/>
<path d="M56.9017 202.352C57.5974 205.078 57.5586 207.442 56.8152 207.631C56.0719 207.821 54.9055 205.765 54.2098 203.039C53.5141 200.314 53.553 197.95 54.2963 197.76C55.0397 197.571 56.206 199.627 56.9017 202.352Z" stroke="#263238" stroke-width="0.525636" stroke-miterlimit="10" stroke-linecap="round" stroke-linejoin="round"/>
<path d="M50.7569 196.395C50.718 195.283 50.7569 194.326 50.8514 193.58" stroke="#263238" stroke-width="0.525636" stroke-miterlimit="10" stroke-linecap="round" stroke-linejoin="round"/>
<path d="M56.4697 213.614C55.1545 211.617 53.3416 208.462 52.1929 204.702C51.4378 202.23 51.0229 199.857 50.8462 197.838" stroke="#263238" stroke-width="0.525636" stroke-miterlimit="10" stroke-linecap="round" stroke-linejoin="round"/>
<path d="M214.362 79.5834C206.636 63.641 203.302 62.2569 198.163 62.0172C193.024 61.7775 180.887 60.2431 167.374 62.4101C167.374 62.4101 129.659 61.7518 100.487 79.4207C70.0219 97.8724 55.2026 114.083 53.1257 122.484C51.0489 130.886 43.9732 152.775 40.6156 165.325C37.2588 177.874 34.965 188.931 39.2484 199.091C41.8391 205.236 44.5933 207.082 48.1356 207.054C47.6569 206.203 47.176 205.21 46.7039 204.04C43.1895 195.327 43.6147 182.85 47.6276 182.018C51.6405 181.186 54.0465 189.56 56.4715 198.667C57.2633 201.641 57.9084 203.441 58.4186 204.522C64.4204 202.258 74.0429 197.183 86.8235 191.93C86.0157 186.379 85.2467 177.696 86.7429 167.796C88.6343 155.283 96.6322 152.519 100.12 160.133C102.996 166.412 104.069 180.455 104.357 185.19C109.496 183.426 113.783 182.245 116.428 182.097C116.428 182.097 160.184 172.218 192.429 171.423C224.675 170.628 240.789 169.864 240.789 169.864C240.789 169.864 222.088 95.5258 214.362 79.5834Z" fill="white"/>
<mask id="mask0_850_1832" style="mask-type:luminance" maskUnits="userSpaceOnUse" x="36" y="61" width="205" height="147">
<path d="M214.362 79.5834C206.636 63.641 203.302 62.2569 198.163 62.0172C193.024 61.7775 180.887 60.2431 167.374 62.4101C167.374 62.4101 129.659 61.7518 100.487 79.4207C70.0219 97.8724 55.2026 114.083 53.1257 122.484C51.0489 130.886 43.9732 152.775 40.6156 165.325C37.2588 177.874 34.965 188.931 39.2484 199.091C41.8391 205.236 44.5933 207.082 48.1356 207.054C47.6569 206.203 47.176 205.21 46.7039 204.04C43.1895 195.327 43.6147 182.85 47.6276 182.018C51.6405 181.186 54.0465 189.56 56.4715 198.667C57.2633 201.641 57.9084 203.441 58.4186 204.522C64.4204 202.258 74.0429 197.183 86.8235 191.93C86.0157 186.379 85.2467 177.696 86.7429 167.796C88.6343 155.283 96.6322 152.519 100.12 160.133C102.996 166.412 104.069 180.455 104.357 185.19C109.496 183.426 113.783 182.245 116.428 182.097C116.428 182.097 160.184 172.218 192.429 171.423C224.675 170.628 240.789 169.864 240.789 169.864C240.789 169.864 222.088 95.5258 214.362 79.5834Z" fill="white"/>
</mask>
<g mask="url(#mask0_850_1832)">
<path d="M111.256 156.543C111.256 156.543 106.822 162.611 101.429 163.911C103.335 170.905 104.116 181.257 104.355 185.19C108.936 183.617 112.831 182.513 115.499 182.186C115.885 179.897 116.123 178.441 116.123 178.441L111.256 156.543Z" fill="#FFDF3C"/>
</g>
<mask id="mask1_850_1832" style="mask-type:luminance" maskUnits="userSpaceOnUse" x="36" y="61" width="205" height="147">
<path d="M214.362 79.5834C206.636 63.641 203.302 62.2569 198.163 62.0172C193.024 61.7775 180.887 60.2431 167.374 62.4101C167.374 62.4101 129.659 61.7518 100.487 79.4207C70.0219 97.8724 55.2026 114.083 53.1257 122.484C51.0489 130.886 43.9732 152.775 40.6156 165.325C37.2588 177.874 34.965 188.931 39.2484 199.091C41.8391 205.236 44.5933 207.082 48.1356 207.054C47.6569 206.203 47.176 205.21 46.7039 204.04C43.1895 195.327 43.6147 182.85 47.6276 182.018C51.6405 181.186 54.0465 189.56 56.4715 198.667C57.2633 201.641 57.9084 203.441 58.4186 204.522C64.4204 202.258 74.0429 197.183 86.8235 191.93C86.0157 186.379 85.2467 177.696 86.7429 167.796C88.6343 155.283 96.6322 152.519 100.12 160.133C102.996 166.412 104.069 180.455 104.357 185.19C109.496 183.426 113.783 182.245 116.428 182.097C116.428 182.097 160.184 172.218 192.429 171.423C224.675 170.628 240.789 169.864 240.789 169.864C240.789 169.864 222.088 95.5258 214.362 79.5834Z" fill="white"/>
</mask>
<g mask="url(#mask1_850_1832)">
<path opacity="0.2" d="M56.659 199.359C58.6933 199.56 60.0532 200.439 64.1944 199.403C71.4938 197.579 66.2551 183.435 78.42 177.656C81.3354 176.272 83.8118 175.66 85.9839 175.528C86.1012 173.063 86.3358 170.476 86.7412 167.795C87.1891 164.833 87.9816 162.423 88.9735 160.562C85.6548 159.538 85.0544 158.568 79.3906 161.259C67.225 167.038 69.0496 181.94 61.7503 183.765C55.9333 185.219 55.6122 182.89 51.1858 183.977C53.256 186.896 54.8585 192.618 56.4691 198.666C56.5344 198.908 56.5967 199.131 56.659 199.359Z" fill="#FFDF3C"/>
</g>
<mask id="mask2_850_1832" style="mask-type:luminance" maskUnits="userSpaceOnUse" x="36" y="61" width="205" height="147">
<path d="M214.362 79.5834C206.636 63.641 203.302 62.2569 198.163 62.0172C193.024 61.7775 180.887 60.2431 167.374 62.4101C167.374 62.4101 129.659 61.7518 100.487 79.4207C70.0219 97.8724 55.2026 114.083 53.1257 122.484C51.0489 130.886 43.9732 152.775 40.6156 165.325C37.2588 177.874 34.965 188.931 39.2484 199.091C41.8391 205.236 44.5933 207.082 48.1356 207.054C47.6569 206.203 47.176 205.21 46.7039 204.04C43.1895 195.327 43.6147 182.85 47.6276 182.018C51.6405 181.186 54.0465 189.56 56.4715 198.667C57.2633 201.641 57.9084 203.441 58.4186 204.522C64.4204 202.258 74.0429 197.183 86.8235 191.93C86.0157 186.379 85.2467 177.696 86.7429 167.796C88.6343 155.283 96.6322 152.519 100.12 160.133C102.996 166.412 104.069 180.455 104.357 185.19C109.496 183.426 113.783 182.245 116.428 182.097C116.428 182.097 160.184 172.218 192.429 171.423C224.675 170.628 240.789 169.864 240.789 169.864C240.789 169.864 222.088 95.5258 214.362 79.5834Z" fill="white"/>
</mask>
<g mask="url(#mask2_850_1832)">
<path opacity="0.2" d="M44.6876 186.825C41.2759 189.174 39.2467 192.675 38.0649 195.658C38.3868 196.813 38.7702 197.958 39.2474 199.089C41.8381 205.234 44.5923 207.08 48.1339 207.052C47.6552 206.201 47.1743 205.208 46.7022 204.038C44.4692 198.501 43.8292 191.448 44.6876 186.825Z" fill="#FFDF3C"/>
</g>
<mask id="mask3_850_1832" style="mask-type:luminance" maskUnits="userSpaceOnUse" x="36" y="61" width="205" height="147">
<path d="M214.362 79.5834C206.636 63.641 203.302 62.2569 198.163 62.0172C193.024 61.7775 180.887 60.2431 167.374 62.4101C167.374 62.4101 129.659 61.7518 100.487 79.4207C70.0219 97.8724 55.2026 114.083 53.1257 122.484C51.0489 130.886 43.9732 152.775 40.6156 165.325C37.2588 177.874 34.965 188.931 39.2484 199.091C41.8391 205.236 44.5933 207.082 48.1356 207.054C47.6569 206.203 47.176 205.21 46.7039 204.04C43.1895 195.327 43.6147 182.85 47.6276 182.018C51.6405 181.186 54.0465 189.56 56.4715 198.667C57.2633 201.641 57.9084 203.441 58.4186 204.522C64.4204 202.258 74.0429 197.183 86.8235 191.93C86.0157 186.379 85.2467 177.696 86.7429 167.796C88.6343 155.283 96.6322 152.519 100.12 160.133C102.996 166.412 104.069 180.455 104.357 185.19C109.496 183.426 113.783 182.245 116.428 182.097C116.428 182.097 160.184 172.218 192.429 171.423C224.675 170.628 240.789 169.864 240.789 169.864C240.789 169.864 222.088 95.5258 214.362 79.5834Z" fill="white"/>
</mask>
<g mask="url(#mask3_850_1832)">
<path opacity="0.2" d="M198.162 62.0162C197.765 61.9979 197.312 61.9693 196.833 61.9377C143.371 75.6186 121.622 140.055 114.133 171.106C114.536 174.193 114.972 177.225 115.45 180.171C116.362 179.996 115.729 182.133 116.427 182.094C116.427 182.094 160.182 172.215 192.428 171.421C224.674 170.625 240.788 169.861 240.788 169.861C240.788 169.861 222.088 95.5248 214.362 79.5824C206.635 63.6407 203.301 62.2566 198.162 62.0162Z" fill="#FFDF3C"/>
</g>
<path d="M214.362 79.5834C206.636 63.641 203.302 62.2569 198.163 62.0172C193.024 61.7775 180.887 60.2431 167.374 62.4101C167.374 62.4101 129.659 61.7518 100.487 79.4207C70.0219 97.8724 55.2026 114.083 53.1257 122.484C51.0489 130.886 43.9732 152.775 40.6156 165.325C37.2588 177.874 34.965 188.931 39.2484 199.091C41.8391 205.236 44.5933 207.082 48.1356 207.054C47.6569 206.203 47.176 205.21 46.7039 204.04C43.1895 195.327 43.6147 182.85 47.6276 182.018C51.6405 181.186 54.0465 189.56 56.4715 198.667C57.2633 201.641 57.9084 203.441 58.4186 204.522C64.4204 202.258 74.0429 197.183 86.8235 191.93C86.0157 186.379 85.2467 177.696 86.7429 167.796C88.6342 155.283 96.6322 152.519 100.12 160.133C102.996 166.412 104.069 180.455 104.357 185.19C109.496 183.426 113.783 182.245 116.428 182.097C116.428 182.097 160.184 172.218 192.429 171.423C224.675 170.628 240.789 169.864 240.789 169.864C240.789 169.864 222.088 95.5258 214.362 79.5834Z" stroke="#263238" stroke-width="0.700847" stroke-miterlimit="10" stroke-linecap="round" stroke-linejoin="round"/>
<path opacity="0.2" d="M54.3301 160.073C54.3301 160.073 55.7156 161.459 58.0248 160.535C60.3341 159.611 60.565 156.147 60.565 156.147L64.0288 155.916L64.7216 145.062L57.1004 148.064C57.1019 148.064 55.0228 158.688 54.3301 160.073Z" fill="#FFDF3C"/>
<path d="M44.3247 191.823C42.9853 192.555 40.1967 194.165 38.1477 195.934C38.4549 196.994 38.8082 198.048 39.2473 199.09C41.8381 205.234 44.5923 207.08 48.1345 207.052C47.6558 206.201 47.1749 205.209 46.7028 204.039C45.1765 200.256 44.3943 195.764 44.3247 191.823Z" fill="#263238" stroke="#263238" stroke-width="0.525636" stroke-miterlimit="10" stroke-linecap="round" stroke-linejoin="round"/>
<path d="M56.0052 185.767C55.6152 185.767 55.2369 185.56 55.0375 185.193C54.7479 184.66 54.9451 183.991 55.4795 183.701C55.6569 183.605 69.9206 174.764 81.7394 168.486C82.276 168.201 82.9417 168.406 83.2261 168.941C83.5113 169.478 83.3075 170.143 82.7709 170.427C70.9616 176.702 56.706 185.537 56.5293 185.634C56.3622 185.725 56.1826 185.767 56.0052 185.767Z" fill="#263238" stroke="#263238" stroke-width="0.700847" stroke-miterlimit="10"/>
<path d="M74.6531 112.285L74.1495 124.871C74.0425 126.59 75.0387 127.417 76.3289 126.68L96.5951 113.486C97.9799 112.696 99.0686 110.48 98.8831 108.827L98.757 94.7854C98.614 93.5113 97.7483 92.993 96.6831 93.5436C92.8754 95.5126 85.5138 102.186 76.7131 108.395C75.6157 109.17 74.7447 110.819 74.6531 112.285Z" fill="#FFDF3C" stroke="#263238" stroke-width="0.700847" stroke-miterlimit="10" stroke-linecap="round" stroke-linejoin="round"/>
<path d="M88.3525 108.737L98.2529 111.154" stroke="#263238" stroke-width="0.700847" stroke-miterlimit="10" stroke-linecap="round" stroke-linejoin="round"/>
<path d="M74.7998 126.739L80.9167 113.233" stroke="#263238" stroke-width="0.700847" stroke-miterlimit="10" stroke-linecap="round" stroke-linejoin="round"/>
<path d="M74.7698 111.874L83.7618 112.998C84.6899 113.137 85.8511 112.365 86.7249 111.029L98.4565 94.2363" stroke="#263238" stroke-width="0.700847" stroke-miterlimit="10" stroke-linecap="round" stroke-linejoin="round"/>
<path d="M124.953 88.9015L127.035 120.385C127.26 124.227 130.668 127.091 134.491 126.651L204.517 117.565C208.62 117.093 211.323 113.059 210.2 109.084L201.365 77.826C200.499 74.7625 197.601 72.7318 194.426 72.965C183.077 73.7963 155.859 76.2404 130.168 81.9673C126.966 82.6813 124.76 85.6254 124.953 88.9015Z" fill="#FFDF3C" stroke="#263238" stroke-width="0.700847" stroke-miterlimit="10" stroke-linecap="round" stroke-linejoin="round"/>
<path d="M177.001 98.6694L208.972 113.815" stroke="#263238" stroke-width="0.700847" stroke-miterlimit="10" stroke-linecap="round" stroke-linejoin="round"/>
<path d="M129.692 125.303L156.687 101.141" stroke="#263238" stroke-width="0.700847" stroke-miterlimit="10" stroke-linecap="round" stroke-linejoin="round"/>
<path d="M125.185 88.0703L163.934 104.005C166.901 105.222 170.308 104.575 172.624 102.356L200.238 76.2742" stroke="#263238" stroke-width="0.700847" stroke-miterlimit="10" stroke-linecap="round" stroke-linejoin="round"/>
<path d="M202.583 122.045C209.165 121.882 214.371 116.507 214.211 110.038C214.051 103.57 208.586 98.4582 202.004 98.6208C195.423 98.7835 190.217 104.159 190.377 110.627C190.536 117.096 196.001 122.207 202.583 122.045Z" fill="#263238" stroke="#263238" stroke-width="0.525636" stroke-miterlimit="10" stroke-linecap="round" stroke-linejoin="round"/>
<path d="M200.989 115.947C200.976 115.947 200.965 115.948 200.953 115.948C200.482 115.948 200.041 115.723 199.765 115.342L195.082 108.878C194.608 108.222 194.755 107.306 195.41 106.831C196.065 106.355 196.983 106.502 197.457 107.158L200.951 111.981L209.307 100.435C209.781 99.7791 210.697 99.6303 211.355 100.106C212.011 100.581 212.158 101.497 211.683 102.153L202.14 115.34C201.871 115.712 201.445 115.936 200.989 115.947Z" fill="white" stroke="#263238" stroke-width="0.700847" stroke-miterlimit="10" stroke-linecap="round" stroke-linejoin="round"/>
<path d="M156.708 147.541C156.708 147.541 181.641 142.759 198.718 143.101L199.743 147.2C199.743 147.2 163.881 148.907 157.05 152.322L156.708 147.541Z" fill="#263238" stroke="#263238" stroke-width="0.525636" stroke-miterlimit="10" stroke-linecap="round" stroke-linejoin="round"/>
<path d="M157.05 152.323L157.774 156.429C157.941 157.374 158.825 158.017 159.776 157.881C166.03 156.983 187.98 153.973 199.34 154.246C200.546 154.275 201.439 153.139 201.109 151.979L199.743 147.2" stroke="#263238" stroke-width="0.700847" stroke-miterlimit="10" stroke-linecap="round" stroke-linejoin="round"/>
<path d="M66.0953 145.072L65.9574 128.137L66.7939 110.725C66.8305 109.966 65.9105 109.564 65.379 110.107C62.2304 113.332 56.8334 118.215 55.2338 122.216C53.1621 127.4 50.7078 152.915 50.7078 152.915L66.0953 145.072Z" fill="#263238" stroke="#263238" stroke-width="0.525636" stroke-miterlimit="10" stroke-linecap="round" stroke-linejoin="round"/>
<path d="M46.5722 158.856H44.117C42.8657 158.856 41.8503 157.842 41.8503 156.59V143.936C41.8503 142.685 42.8649 141.669 44.117 141.669H46.5722C47.8235 141.669 48.8389 142.684 48.8389 143.936V156.59C48.8389 157.842 47.8243 158.856 46.5722 158.856Z" fill="#263238" stroke="#263238" stroke-width="0.525636" stroke-miterlimit="10" stroke-linecap="round" stroke-linejoin="round"/>
<path d="M48.1206 129.849C48.1206 129.849 50.0897 130.22 51.506 130.885C52.9223 131.55 53.9288 132.645 53.9288 132.645L57.5891 127.796C57.5891 127.796 52.2142 125.549 51.2003 124.174C50.1864 122.799 50.1864 122.799 50.1864 122.799L48.1206 129.849Z" fill="white"/>
<mask id="mask4_850_1832" style="mask-type:luminance" maskUnits="userSpaceOnUse" x="48" y="122" width="10" height="11">
<path d="M48.1206 129.849C48.1206 129.849 50.0897 130.22 51.506 130.885C52.9223 131.55 53.9288 132.645 53.9288 132.645L57.5891 127.796C57.5891 127.796 52.2142 125.549 51.2003 124.174C50.1864 122.799 50.1864 122.799 50.1864 122.799L48.1206 129.849Z" fill="white"/>
</mask>
<g mask="url(#mask4_850_1832)">
<path opacity="0.5" d="M51.2003 124.174C50.586 123.34 50.3463 123.016 50.251 122.886L50.1395 122.958L48.1206 129.849C48.1206 129.849 48.5055 129.922 49.0575 130.06L54.2983 126.258C52.9736 125.574 51.6526 124.787 51.2003 124.174Z" fill="#FFDF3C"/>
</g>
<path d="M48.1206 129.849C48.1206 129.849 50.0897 130.22 51.506 130.885C52.9223 131.55 53.9288 132.645 53.9288 132.645L57.5891 127.796C57.5891 127.796 52.2142 125.549 51.2003 124.174C50.1864 122.799 50.1864 122.799 50.1864 122.799L48.1206 129.849Z" stroke="#263238" stroke-width="0.525636" stroke-miterlimit="10" stroke-linecap="round" stroke-linejoin="round"/>
<path d="M55.8583 125.738L51.3792 131.448L51.9869 133.393L58.8141 126.306L55.8583 125.738Z" fill="#FFDF3C" stroke="#263238" stroke-width="0.700847" stroke-miterlimit="10" stroke-linecap="round" stroke-linejoin="round"/>
<path d="M48.6866 109.606C45.6626 107.253 37.7716 108.756 36.2197 114.312C35.274 117.698 35.8004 122.867 35.8004 122.867L44.7924 120.96C45.0065 121.296 45.2403 121.655 45.5101 122.063C46.9645 124.266 50.1476 122.788 50.9694 122.068C51.4195 121.673 51.3894 120.536 51.2699 119.586L51.6277 119.511C51.6277 119.511 51.7113 111.958 48.6866 109.606Z" fill="#263238" stroke="#263238" stroke-width="0.525636" stroke-miterlimit="10" stroke-linecap="round" stroke-linejoin="round"/>
<path d="M45.3006 120.287C45.3006 120.287 39.4007 119.453 33.5697 121.416C27.7387 123.38 26.8011 125.083 30.998 124.979C35.195 124.875 45.3006 120.287 45.3006 120.287Z" fill="#263238" stroke="#263238" stroke-width="0.525636" stroke-miterlimit="10" stroke-linecap="round" stroke-linejoin="round"/>
<path d="M38.0897 118.156C38.7728 118.156 39.3265 117.397 39.3265 116.461C39.3265 115.524 38.7728 114.765 38.0897 114.765C37.4067 114.765 36.853 115.524 36.853 116.461C36.853 117.397 37.4067 118.156 38.0897 118.156Z" fill="#FFDF3C"/>
<path d="M65.958 128.138C65.958 128.138 57.9285 126.096 55.4551 127.977C52.9816 129.858 52.3578 132.952 53.151 136.712C53.9434 140.472 55.8678 150.364 55.8678 150.364L66.0958 145.073L65.958 128.138Z" fill="#263238" stroke="#263238" stroke-width="0.525636" stroke-miterlimit="10" stroke-linecap="round" stroke-linejoin="round"/>
<path d="M53.2113 148.788C53.2113 148.788 52.7825 152.585 52.2737 153.12C51.7649 153.654 38.4257 142.442 37.6171 141.418C36.8085 140.393 37.3678 136.593 37.5995 135.412C37.8319 134.231 37.4243 133.589 36.1385 134.403C34.8526 135.219 35.1979 138.604 35.1979 138.604C35.1979 138.604 31.2583 137.657 30.4717 137.545C29.6858 137.434 28.9747 138.413 29.1243 139.193C29.2738 139.972 30.2716 140.031 30.2716 140.031C30.2716 140.031 29.798 142 30.4856 143.42C31.1733 144.839 31.9789 145.733 33.4238 146.089C34.8688 146.445 37.9998 146.367 37.9998 146.367C37.9998 146.367 44.8182 152.857 46.8364 155.288C48.8546 157.719 52.9833 161.012 55.058 160.438C57.1326 159.865 59.1178 149.487 59.1178 149.487L53.2113 148.788Z" fill="white"/>
<mask id="mask5_850_1832" style="mask-type:luminance" maskUnits="userSpaceOnUse" x="29" y="134" width="31" height="27">
<path d="M53.2113 148.788C53.2113 148.788 52.7825 152.585 52.2737 153.12C51.7649 153.654 38.4257 142.442 37.6171 141.418C36.8085 140.393 37.3678 136.593 37.5995 135.412C37.8319 134.231 37.4243 133.589 36.1385 134.403C34.8526 135.219 35.1979 138.604 35.1979 138.604C35.1979 138.604 31.2583 137.657 30.4717 137.545C29.6858 137.434 28.9747 138.413 29.1243 139.193C29.2738 139.972 30.2716 140.031 30.2716 140.031C30.2716 140.031 29.798 142 30.4856 143.42C31.1733 144.839 31.9789 145.733 33.4238 146.089C34.8688 146.445 37.9998 146.367 37.9998 146.367C37.9998 146.367 44.8182 152.857 46.8364 155.288C48.8546 157.719 52.9833 161.012 55.058 160.438C57.1326 159.865 59.1178 149.487 59.1178 149.487L53.2113 148.788Z" fill="white"/>
</mask>
<g mask="url(#mask5_850_1832)">
<path opacity="0.5" d="M52.2738 153.12L56.1723 154.419C56.1723 154.419 56.6496 157.285 53.7847 158.24C52.0627 158.814 48.9676 156.861 46.7668 155.209C46.7881 155.235 46.8167 155.265 46.8372 155.29C48.8554 157.721 52.9841 161.014 55.0588 160.44C57.1334 159.867 59.1186 149.489 59.1186 149.489L53.2121 148.789C53.2121 148.789 52.7833 152.584 52.2738 153.12Z" fill="#FFDF3C"/>
</g>
<path d="M53.2113 148.788C53.2113 148.788 52.7825 152.585 52.2737 153.12C51.7649 153.654 38.4257 142.442 37.6171 141.418C36.8085 140.393 37.3678 136.593 37.5995 135.412C37.8319 134.231 37.4243 133.589 36.1385 134.403C34.8526 135.219 35.1979 138.604 35.1979 138.604C35.1979 138.604 31.2583 137.657 30.4717 137.545C29.6858 137.434 28.9747 138.413 29.1243 139.193C29.2738 139.972 30.2716 140.031 30.2716 140.031C30.2716 140.031 29.798 142 30.4856 143.42C31.1733 144.839 31.9789 145.733 33.4238 146.089C34.8688 146.445 37.9998 146.367 37.9998 146.367C37.9998 146.367 44.8182 152.857 46.8364 155.288C48.8546 157.719 52.9833 161.012 55.058 160.438C57.1326 159.865 59.1178 149.487 59.1178 149.487L53.2113 148.788Z" stroke="#263238" stroke-width="0.525636" stroke-miterlimit="10" stroke-linecap="round" stroke-linejoin="round"/>
<path d="M39.8772 143.448L38.0005 146.369L38.9608 147.021L40.8852 144.272L39.8772 143.448Z" fill="#263238" stroke="#263238" stroke-width="0.700847" stroke-miterlimit="10"/>
<path d="M39.2358 146.197C39.6406 146.197 39.9689 145.868 39.9689 145.464C39.9689 145.059 39.6406 144.73 39.2358 144.73C38.8309 144.73 38.5027 145.059 38.5027 145.464C38.5027 145.868 38.8309 146.197 39.2358 146.197Z" fill="white" stroke="#263238" stroke-width="0.525636" stroke-miterlimit="10" stroke-linecap="round" stroke-linejoin="round"/>
<path d="M37.4346 123.801C37.4346 123.801 37.8818 124.911 38.6295 126.852C39.3773 128.793 43.3982 132.894 45.3636 133.125C47.329 133.356 49.6822 126.22 50.0569 124.75C50.1815 124.261 50.3054 123.484 50.3054 123.484C50.3054 123.484 52.7759 122.325 52.2019 120.917C51.6279 119.51 50.4711 118.86 49.922 119.294C49.3729 119.727 49.2776 121.549 48.4382 121.57C47.5988 121.59 47.1722 121.321 46.4486 120.359C45.725 119.398 38.2153 121.403 37.4346 123.801Z" fill="white"/>
<mask id="mask6_850_1832" style="mask-type:luminance" maskUnits="userSpaceOnUse" x="37" y="119" width="16" height="15">
<path d="M37.4346 123.801C37.4346 123.801 37.8818 124.911 38.6295 126.852C39.3773 128.793 43.3982 132.894 45.3636 133.125C47.329 133.356 49.6822 126.22 50.0569 124.75C50.1815 124.261 50.3054 123.484 50.3054 123.484C50.3054 123.484 52.7759 122.325 52.2019 120.917C51.6279 119.51 50.4711 118.86 49.922 119.294C49.3729 119.727 49.2776 121.549 48.4382 121.57C47.5988 121.59 47.1722 121.321 46.4486 120.359C45.725 119.398 38.2153 121.403 37.4346 123.801Z" fill="white"/>
</mask>
<g mask="url(#mask6_850_1832)">
<path opacity="0.5" d="M46.4486 120.36C45.725 119.398 38.2153 121.403 37.4346 123.802C37.4346 123.802 37.5907 124.189 37.8664 124.889C39.2951 124.029 42.9686 121.996 47.1003 121.1C46.898 120.919 46.6898 120.681 46.4486 120.36Z" fill="#FFDF3C"/>
</g>
<mask id="mask7_850_1832" style="mask-type:luminance" maskUnits="userSpaceOnUse" x="37" y="119" width="16" height="15">
<path d="M37.4346 123.801C37.4346 123.801 37.8818 124.911 38.6295 126.852C39.3773 128.793 43.3982 132.894 45.3636 133.125C47.329 133.356 49.6822 126.22 50.0569 124.75C50.1815 124.261 50.3054 123.484 50.3054 123.484C50.3054 123.484 52.7759 122.325 52.2019 120.917C51.6279 119.51 50.4711 118.86 49.922 119.294C49.3729 119.727 49.2776 121.549 48.4382 121.57C47.5988 121.59 47.1722 121.321 46.4486 120.359C45.725 119.398 38.2153 121.403 37.4346 123.801Z" fill="white"/>
</mask>
<g mask="url(#mask7_850_1832)">
<path opacity="0.5" d="M52.1044 120.719C51.5062 119.457 50.4432 118.883 49.922 119.295C49.6163 119.536 49.4514 120.206 49.2205 120.758C50.1808 120.657 51.1485 120.635 52.1044 120.719Z" fill="#FFDF3C"/>
</g>
<path d="M37.4346 123.801C37.4346 123.801 37.8818 124.911 38.6295 126.852C39.3773 128.793 43.3982 132.894 45.3636 133.125C47.329 133.356 49.6822 126.22 50.0569 124.75C50.1815 124.261 50.3054 123.484 50.3054 123.484C50.3054 123.484 52.7759 122.325 52.2019 120.917C51.6279 119.51 50.4711 118.86 49.922 119.294C49.3729 119.727 49.2776 121.549 48.4382 121.57C47.5988 121.59 47.1722 121.321 46.4486 120.359C45.725 119.398 38.2153 121.403 37.4346 123.801Z" stroke="#263238" stroke-width="0.525636" stroke-miterlimit="10" stroke-linecap="round" stroke-linejoin="round"/>
<path d="M40.0992 124.346C40.2297 124.796 40.1894 125.202 40.0097 125.255C39.8294 125.307 39.578 124.985 39.4475 124.535C39.317 124.085 39.3573 123.678 39.5369 123.625C39.7172 123.573 39.9687 123.895 40.0992 124.346Z" fill="#263238" stroke="#263238" stroke-width="0.700847" stroke-miterlimit="10"/>
<path d="M38.7556 123.082C39.7812 122.789 40.1881 123.564 40.3493 124.274L40.5377 125.119L41.1792 128.379L42.1476 127.967" stroke="#263238" stroke-width="0.350424" stroke-miterlimit="10" stroke-linecap="round" stroke-linejoin="round"/>
<path d="M42.9131 123.337C42.9131 123.337 43.5069 122.573 44.6952 122.658" stroke="#263238" stroke-width="0.350424" stroke-miterlimit="10" stroke-linecap="round" stroke-linejoin="round"/>
<path d="M43.7616 121.3C43.7616 121.3 42.3188 121.554 42.0645 122.997" stroke="#263238" stroke-width="0.350424" stroke-miterlimit="10" stroke-linecap="round" stroke-linejoin="round"/>
<path d="M42.998 129.022C42.998 129.022 45.1196 128.597 45.2889 127.07" stroke="#263238" stroke-width="0.350424" stroke-miterlimit="10" stroke-linecap="round" stroke-linejoin="round"/>
<path d="M61.0429 154.287L50.3091 151.291C50.3091 151.291 51.254 132.963 52.9115 129.867C55.4913 125.049 61.4117 127.221 62.5223 133.271C63.5669 138.964 61.0429 154.287 61.0429 154.287Z" fill="#FFDF3C" stroke="#263238" stroke-width="0.700847" stroke-miterlimit="10" stroke-linecap="round" stroke-linejoin="round"/>
<path d="M50.5642 149.231C50.5642 149.231 56.4626 150.579 60.002 151.759" stroke="#263238" stroke-width="0.350424" stroke-miterlimit="10" stroke-linecap="round" stroke-linejoin="round"/>
<path d="M59.8523 126.665C59.8523 126.665 63.341 126.933 65.6217 128.811" stroke="#FFDF3C" stroke-width="0.350424" stroke-miterlimit="10" stroke-linecap="round" stroke-linejoin="round"/>
<path d="M121.349 173.541C121.349 173.541 105.719 179.059 104.289 180.562C102.86 182.064 103.004 187.926 106.374 190.776C109.744 193.627 133.784 187.167 150.971 185.277C168.157 183.386 205.854 180.623 221.235 179.878C236.616 179.131 243.633 181.158 244.981 176.359C246.329 171.559 246.203 166.429 243.244 165.402C240.285 164.374 186.909 155.791 121.349 173.541Z" fill="#263238" stroke="#263238" stroke-width="0.525636" stroke-miterlimit="10" stroke-linecap="round" stroke-linejoin="round"/>
<path d="M103.174 183.762C103.174 183.762 103.907 190.116 107.817 191.093C111.726 192.07 158.156 183.273 185.524 182.296C212.892 181.319 236.84 180.586 236.84 180.586" stroke="white" stroke-width="0.350424" stroke-miterlimit="10" stroke-linecap="round" stroke-linejoin="round"/>
<path d="M125.852 186.99C144.003 182.564 181.342 176.371 244.171 178.142" stroke="white" stroke-width="0.350424" stroke-miterlimit="10" stroke-linecap="round" stroke-linejoin="round"/>
<path d="M110.975 190.858C110.975 190.858 115.141 189.845 121.489 188.114" stroke="white" stroke-width="0.350424" stroke-miterlimit="10" stroke-linecap="round" stroke-linejoin="round"/>
<path d="M114.801 191.586C114.801 191.586 115.153 195.41 114.582 199.754" stroke="white" stroke-width="0.350424" stroke-miterlimit="10" stroke-linecap="round" stroke-linejoin="round"/>
<path d="M114.136 74.355C114.136 74.355 110.639 78.4529 110.363 82.1264" stroke="#263238" stroke-width="0.525636" stroke-miterlimit="10" stroke-linecap="round" stroke-linejoin="round"/>
<path d="M110.001 85.0901C110.001 85.0901 107.367 126.954 114.332 171.514" stroke="#263238" stroke-width="0.525636" stroke-miterlimit="10" stroke-linecap="round" stroke-linejoin="round"/>
<path d="M110.828 133.468C110.828 133.468 105.143 135.445 105.073 138.01C104.884 144.909 105.606 159.629 107.108 161.059C108.61 162.488 113.283 158.706 113.283 158.706C113.283 158.706 119.897 159.276 120.593 157.793C121.289 156.309 118.576 135.477 118.164 133.654C117.754 131.83 110.828 133.468 110.828 133.468Z" fill="#FFDF3C" stroke="#263238" stroke-width="0.700847" stroke-miterlimit="10" stroke-linecap="round" stroke-linejoin="round"/>
<path d="M229.501 143.374C230.837 144.132 232.726 144.493 234.23 144.625C232.412 137.793 230.351 130.182 228.225 122.59C226.305 122.454 223.852 122.453 223.874 123.347C223.91 124.813 227.642 142.32 229.501 143.374Z" fill="#FFDF3C" stroke="#263238" stroke-width="0.700847" stroke-miterlimit="10" stroke-linecap="round" stroke-linejoin="round"/>
<path d="M110.016 135.622C110.016 135.622 110.26 148.818 111.238 153.949" stroke="#263238" stroke-width="0.525636" stroke-miterlimit="10" stroke-linecap="round" stroke-linejoin="round"/>
<path d="M178.539 138.673C178.539 138.673 211.253 133.402 249.364 140.114" stroke="#263238" stroke-width="0.700847" stroke-miterlimit="10" stroke-linecap="round" stroke-linejoin="round"/>
<path d="M278.124 159.339C280.372 160.009 282.587 160.723 284.745 161.481" stroke="#263238" stroke-width="0.700847" stroke-miterlimit="10" stroke-linecap="round" stroke-linejoin="round"/>
<path d="M219.397 149.381C219.397 149.381 245.333 150.955 270.171 157.167" stroke="#263238" stroke-width="0.700847" stroke-miterlimit="10" stroke-linecap="round" stroke-linejoin="round"/>
<path d="M140.461 209.782C140.461 209.782 170.4 204.408 204.945 208.63" stroke="#263238" stroke-width="0.700847" stroke-miterlimit="10" stroke-linecap="round" stroke-linejoin="round"/>
<path d="M137.774 206.327C137.774 206.327 153.127 204.408 158.117 204.023" stroke="#263238" stroke-width="0.700847" stroke-miterlimit="10" stroke-linecap="round" stroke-linejoin="round"/>
<path d="M240.584 63.9429C242.794 64.2618 244.947 64.6606 246.975 65.1561" stroke="#263238" stroke-width="0.700847" stroke-miterlimit="10" stroke-linecap="round" stroke-linejoin="round"/>
<path d="M208.981 63.2236C208.981 63.2236 222.741 62.1078 236.102 63.4068" stroke="#263238" stroke-width="0.700847" stroke-miterlimit="10" stroke-linecap="round" stroke-linejoin="round"/>
<path d="M90.7021 152.027C90.7021 152.027 112.606 141.652 144.309 138.769" stroke="#263238" stroke-width="0.700847" stroke-miterlimit="10" stroke-linecap="round" stroke-linejoin="round"/>
<path d="M127.593 133.005C127.593 133.005 140.851 129.547 161.026 128.394" stroke="#263238" stroke-width="0.700847" stroke-miterlimit="10" stroke-linecap="round" stroke-linejoin="round"/>
<path d="M90.345 206.244C90.345 206.244 93.6439 213.208 102.441 216.507" stroke="#263238" stroke-width="0.700847" stroke-miterlimit="10" stroke-linecap="round" stroke-linejoin="round"/>
<path d="M89.6121 209.543C89.6121 209.543 92.9109 214.674 97.3095 216.874" stroke="#263238" stroke-width="0.700847" stroke-miterlimit="10" stroke-linecap="round" stroke-linejoin="round"/>
<path d="M197.742 191.216C197.742 191.216 199.941 201.479 208.738 205.877" stroke="#263238" stroke-width="0.700847" stroke-miterlimit="10" stroke-linecap="round" stroke-linejoin="round"/>
<path d="M198.842 200.379C198.842 200.379 201.408 204.411 205.806 206.244" stroke="#263238" stroke-width="0.700847" stroke-miterlimit="10" stroke-linecap="round" stroke-linejoin="round"/>
<path d="M53.8059 220.147C53.8059 220.147 56.0052 223.812 63.7026 223.812" stroke="#263238" stroke-width="0.700847" stroke-miterlimit="10" stroke-linecap="round" stroke-linejoin="round"/>
<path d="M52.3398 222.346C52.3398 222.346 56.3718 226.011 62.2365 226.378" stroke="#263238" stroke-width="0.700847" stroke-miterlimit="10" stroke-linecap="round" stroke-linejoin="round"/>
<path d="M151.439 213.298C130.929 214.462 111.449 217.471 93.6765 221.932L94.1325 222.616C94.1325 222.616 110.26 219.195 140.073 226.526C169.885 233.857 171.84 239.722 204.584 239.722C237.329 239.722 269.096 231.902 269.096 231.902C269.096 231.902 267.618 231.082 265.119 229.7C235.76 217.267 195.469 210.801 151.439 213.298Z" fill="#FFDF3C"/>
<path opacity="0.5" d="M151.439 213.298C130.929 214.462 111.449 217.471 93.6765 221.932L94.1325 222.616C94.1325 222.616 110.26 219.195 140.073 226.526C169.885 233.857 171.84 239.722 204.584 239.722C237.329 239.722 269.096 231.902 269.096 231.902C269.096 231.902 267.618 231.082 265.119 229.7C235.76 217.267 195.469 210.801 151.439 213.298Z" fill="white"/>
<path d="M79.7151 230.069C79.7151 230.069 118.202 224.204 151.558 246.564" stroke="#263238" stroke-width="0.700847" stroke-miterlimit="10" stroke-linecap="round" stroke-linejoin="round"/>
<path d="M120.035 238.5C120.035 238.5 135.796 243.265 145.326 253.528" stroke="#263238" stroke-width="0.700847" stroke-miterlimit="10" stroke-linecap="round" stroke-linejoin="round"/>
<path d="M213.137 219.806C213.137 219.806 235.496 222.005 255.656 234.101" stroke="#263238" stroke-width="0.700847" stroke-miterlimit="10" stroke-linecap="round" stroke-linejoin="round"/>
<path d="M282.866 238.753C287.082 241.354 290.918 244.116 294.335 247.025" stroke="#263238" stroke-width="0.700847" stroke-miterlimit="10" stroke-linecap="round" stroke-linejoin="round"/>
<path d="M20.5637 256.043C47.284 233.294 95.5629 216.468 151.439 213.298C202.444 210.405 248.444 219.534 278.227 236.04" stroke="#263238" stroke-width="0.700847" stroke-miterlimit="10" stroke-linecap="round" stroke-linejoin="round"/>
<path d="M183.447 219.439C183.447 219.439 206.539 220.539 221.934 225.671" stroke="#263238" stroke-width="0.700847" stroke-miterlimit="10" stroke-linecap="round" stroke-linejoin="round"/>
<path d="M78.7447 45.409C78.7447 45.409 78.0204 35.2661 63.1673 34.9032C48.315 34.541 52.2993 45.0462 48.315 47.5819C44.3299 50.1177 43.2435 46.1326 39.2584 48.6683C35.2734 51.2041 37.0848 56.2756 33.8248 57.0006C30.5647 57.7249 26.2175 53.7406 22.2325 56.2763C18.2474 58.8121 18.2474 60.9857 16.4367 60.9857C14.6252 60.9857 11.0031 59.5364 8.82946 60.9857C6.65586 62.435 4.12012 64.2457 4.12012 64.2457H95.7713C95.7713 64.2457 96.8578 60.9857 92.8734 58.8121C88.8884 56.6385 87.0776 58.4499 85.6283 56.6385C84.179 54.8277 89.6127 50.1184 78.7447 45.409Z" fill="#FFDF3C"/>
<path d="M133.193 6.60595C133.193 6.60595 132.757 0.504469 123.822 0.286742C114.888 0.0690157 117.285 6.38822 114.888 7.91377C112.491 9.43933 111.838 7.04213 109.441 8.56769C107.043 10.0932 108.133 13.1436 106.172 13.5798C104.211 14.0153 101.596 11.6188 99.1986 13.1443C96.8014 14.6699 96.8014 15.977 95.712 15.977C94.6227 15.977 92.4432 15.1054 91.1361 15.977C89.829 16.8486 88.3035 17.938 88.3035 17.938H143.434C143.434 17.938 144.088 15.977 141.69 14.6692C139.293 13.3621 138.204 14.4514 137.332 13.3621C136.461 12.272 139.729 9.43933 133.193 6.60595Z" fill="#FFDF3C"/>
<path opacity="0.7" d="M78.7447 45.409C78.7447 45.409 78.0204 35.2661 63.1673 34.9032C48.315 34.541 52.2993 45.0462 48.315 47.5819C44.3299 50.1177 43.2435 46.1326 39.2584 48.6683C35.2734 51.2041 37.0848 56.2756 33.8248 57.0006C30.5647 57.7249 26.2175 53.7406 22.2325 56.2763C18.2474 58.8121 18.2474 60.9857 16.4367 60.9857C14.6252 60.9857 11.0031 59.5364 8.82946 60.9857C6.65586 62.435 4.12012 64.2457 4.12012 64.2457H95.7713C95.7713 64.2457 96.8578 60.9857 92.8734 58.8121C88.8884 56.6385 87.0776 58.4499 85.6283 56.6385C84.179 54.8277 89.6127 50.1184 78.7447 45.409Z" fill="white"/>
<path opacity="0.8" d="M133.193 6.60595C133.193 6.60595 132.757 0.504469 123.822 0.286742C114.888 0.0690157 117.285 6.38822 114.888 7.91377C112.491 9.43933 111.838 7.04213 109.441 8.56769C107.043 10.0932 108.133 13.1436 106.172 13.5798C104.211 14.0153 101.596 11.6188 99.1986 13.1443C96.8014 14.6699 96.8014 15.977 95.712 15.977C94.6227 15.977 92.4432 15.1054 91.1361 15.977C89.829 16.8486 88.3035 17.938 88.3035 17.938H143.434C143.434 17.938 144.088 15.977 141.69 14.6692C139.293 13.3621 138.204 14.4514 137.332 13.3621C136.461 12.272 139.729 9.43933 133.193 6.60595Z" fill="white"/>
</svg>
